<?xml version="1.0" standalone="no"?>
<!DOCTYPE svg PUBLIC "-//W3C//DTD SVG 20010904//EN"
 "http://www.w3.org/TR/2001/REC-SVG-20010904/DTD/svg10.dtd">
<svg version="1.0" xmlns="http://www.w3.org/2000/svg"
 width="835.000000pt" height="959.000000pt" viewBox="0 0 835.000000 959.000000"
 preserveAspectRatio="xMidYMid meet">

<g transform="translate(0.000000,959.000000) scale(0.100000,-0.100000)"
fill="#000000" stroke="none">
<path d="M4170 9310 c-11 -11 -28 -20 -38 -20 -21 0 -106 -96 -159 -177 -18
-29 -44 -63 -58 -77 -13 -13 -27 -37 -31 -53 -4 -15 -16 -37 -26 -48 -34 -36
-138 -199 -138 -217 0 -10 -4 -18 -9 -18 -11 0 -71 -95 -71 -111 0 -6 -9 -22
-20 -36 -11 -14 -20 -34 -20 -44 0 -37 -24 -24 -94 50 -10 11 -41 28 -67 36
-43 15 -49 20 -49 44 0 27 -26 61 -47 61 -6 0 -33 19 -59 43 -53 46 -109 87
-120 87 -3 0 -26 14 -51 30 -24 17 -52 30 -62 30 -10 0 -21 9 -24 20 -3 14
-14 20 -31 20 -14 0 -26 4 -26 9 0 5 -10 13 -22 17 -13 3 -30 12 -38 19 -8 7
-43 19 -78 26 -49 10 -67 11 -82 1 -11 -7 -33 -12 -49 -12 -32 0 -81 -42 -81
-70 0 -10 -7 -23 -15 -30 -7 -6 -17 -33 -21 -58 -3 -26 -11 -53 -17 -60 -5 -6
-7 -26 -3 -43 3 -17 1 -40 -6 -52 -15 -28 -19 -89 -23 -346 -2 -126 -8 -218
-14 -224 -7 -7 -21 -4 -45 7 -30 14 -104 33 -265 67 -97 20 -472 31 -576 16
-38 -6 -65 -15 -75 -27 -8 -10 -24 -20 -35 -22 -12 -2 -28 -20 -40 -43 -22
-46 -33 -149 -16 -159 5 -4 8 -19 5 -34 -3 -16 3 -54 15 -90 12 -34 21 -70 21
-81 0 -10 10 -26 23 -34 19 -12 23 -23 22 -63 -2 -43 21 -134 38 -151 4 -3 7
-17 7 -30 0 -13 9 -41 20 -63 11 -22 20 -46 20 -53 0 -8 7 -28 15 -43 8 -16
18 -45 21 -64 4 -19 16 -45 27 -57 l20 -22 -27 -11 c-15 -5 -33 -10 -39 -10
-18 0 -229 -60 -249 -71 -10 -5 -24 -9 -32 -9 -19 0 -118 -41 -137 -57 -9 -7
-19 -10 -22 -6 -4 3 -17 1 -30 -5 -12 -6 -42 -20 -67 -31 -129 -56 -198 -90
-204 -100 -4 -6 -16 -11 -26 -11 -26 0 -130 -67 -130 -84 0 -7 -17 -18 -37
-24 -61 -19 -105 -112 -68 -142 10 -9 14 -23 11 -39 -3 -14 1 -37 8 -50 35
-62 213 -242 384 -386 56 -47 76 -68 95 -97 9 -14 41 -41 71 -60 31 -18 57
-38 60 -44 7 -17 -58 -54 -110 -63 -27 -4 -58 -12 -69 -18 -11 -5 -35 -17 -53
-26 -19 -9 -42 -17 -52 -17 -9 0 -23 -7 -30 -15 -7 -8 -29 -19 -50 -25 -20 -5
-54 -21 -74 -35 -20 -14 -40 -25 -44 -25 -8 0 -141 -66 -189 -94 -13 -7 -31
-20 -41 -29 -10 -10 -24 -17 -30 -17 -15 0 -112 -68 -129 -89 -40 -52 -46 -83
-35 -169 7 -53 19 -93 32 -111 11 -16 20 -32 20 -37 0 -4 11 -22 25 -40 14
-18 25 -39 25 -47 0 -8 23 -50 52 -93 62 -94 65 -99 101 -134 15 -16 27 -31
27 -36 0 -4 22 -31 50 -60 27 -29 50 -57 50 -63 0 -5 9 -13 20 -16 11 -3 20
-13 20 -20 0 -8 16 -26 35 -41 32 -24 47 -54 28 -54 -5 0 -25 -15 -45 -33 -20
-17 -56 -47 -80 -65 -132 -100 -155 -119 -171 -139 -10 -13 -23 -23 -28 -23
-13 0 -119 -82 -166 -129 -22 -23 -45 -41 -50 -41 -18 0 -124 -115 -129 -140
-3 -14 -9 -33 -15 -42 -22 -42 10 -190 47 -211 8 -4 14 -14 14 -22 0 -8 12
-27 27 -43 16 -16 37 -40 49 -53 55 -65 292 -259 316 -259 5 0 30 -17 56 -39
26 -21 62 -46 80 -55 17 -9 32 -20 32 -24 0 -14 -197 -202 -212 -202 -3 0 -10
-9 -13 -20 -4 -11 -17 -26 -31 -33 -13 -7 -63 -55 -111 -107 -88 -97 -144
-175 -158 -220 -4 -14 -15 -33 -24 -44 -37 -42 -16 -246 26 -246 7 0 13 -10
13 -24 0 -13 7 -29 15 -36 8 -7 15 -17 15 -23 0 -11 47 -57 59 -57 5 0 11 -9
14 -20 3 -12 14 -20 26 -20 11 0 25 -8 30 -19 11 -21 53 -48 148 -96 34 -18
74 -42 88 -54 15 -11 38 -21 51 -21 12 0 29 -6 36 -13 20 -20 185 -69 207 -62
11 3 29 0 39 -6 17 -10 30 -8 82 15 35 14 64 25 66 24 1 -2 12 -25 24 -52 11
-26 29 -61 40 -76 23 -33 25 -44 8 -62 -38 -40 -40 -45 -23 -78 9 -17 13 -35
10 -40 -3 -5 -1 -17 4 -27 5 -10 21 -53 36 -95 15 -42 33 -82 41 -89 8 -6 14
-17 14 -24 0 -28 160 -272 218 -334 9 -10 33 -38 52 -62 58 -72 235 -239 263
-248 7 -2 23 -15 37 -28 27 -27 152 -103 169 -103 6 0 11 -3 11 -8 0 -8 73
-42 90 -42 6 0 32 -11 58 -24 47 -23 135 -50 222 -67 56 -11 403 -47 450 -47
19 0 64 -2 99 -6 42 -3 69 -2 78 6 10 8 20 8 37 -2 19 -10 48 -10 138 -1 62 6
142 14 178 17 35 3 70 10 77 16 7 6 20 8 28 4 8 -3 36 1 62 8 27 8 69 19 94
24 25 6 75 25 111 41 79 37 87 37 181 10 120 -34 147 -40 221 -42 39 -2 77 -7
84 -11 23 -14 232 -19 248 -5 11 9 18 9 26 1 15 -15 131 -15 146 0 8 8 15 8
26 -1 14 -12 191 -11 211 1 6 3 46 6 90 7 44 1 91 2 105 3 14 1 30 0 35 -2 21
-8 161 13 182 27 18 12 26 13 38 3 16 -13 82 -7 200 17 39 8 99 19 135 24 77
10 159 26 215 41 22 6 50 11 63 13 13 1 29 10 36 20 10 15 25 16 99 13 80 -4
89 -7 127 -39 36 -29 169 -107 238 -138 55 -25 491 -36 514 -13 7 7 22 12 35
12 28 0 73 20 73 33 0 5 7 7 15 4 8 -4 27 0 42 8 15 8 36 15 45 15 9 0 19 9
23 19 3 11 27 32 53 47 94 54 194 128 202 150 5 12 20 24 37 27 16 3 42 17 58
31 59 51 71 62 126 111 48 43 149 157 149 169 0 2 21 34 46 72 49 72 128 232
140 281 4 15 12 34 18 42 15 19 38 83 37 105 0 10 7 28 15 40 7 11 14 32 14
46 0 14 6 32 12 38 9 9 13 62 13 185 0 157 -2 178 -25 246 -13 40 -35 84 -47
98 -13 13 -23 32 -23 42 0 10 -18 37 -40 60 l-41 42 23 77 c16 56 22 109 24
197 2 66 5 163 8 215 5 113 -11 355 -26 390 -34 79 -38 170 -9 230 12 24 19
52 15 62 -3 10 -1 18 5 18 6 0 11 9 11 20 0 12 9 38 20 60 22 44 48 137 60
220 14 92 11 303 -5 417 -15 98 -21 126 -45 188 -4 11 -13 38 -19 60 -7 22
-16 49 -21 60 -5 11 -23 52 -40 90 -34 77 -70 134 -112 179 -31 33 -34 44 -14
52 25 9 44 351 22 399 -5 11 -11 65 -13 119 -2 55 -8 105 -14 112 -5 7 -14 51
-19 99 -5 48 -15 108 -23 133 -8 26 -25 81 -37 122 -12 41 -27 89 -35 105 -7
17 -18 46 -23 65 -24 85 -34 116 -42 135 -5 11 -16 42 -25 69 -9 27 -29 78
-46 115 -17 36 -36 77 -42 91 -6 14 -20 35 -31 47 -11 13 -20 31 -21 40 -1 10
-5 26 -9 35 -4 9 -5 22 -1 27 3 6 -5 22 -19 35 -14 13 -26 29 -26 36 0 14 -60
139 -92 192 -13 20 -43 69 -67 108 -24 39 -55 79 -68 87 -13 8 -23 23 -23 32
0 23 -172 213 -243 268 -9 7 -19 18 -24 25 -19 30 -315 278 -332 278 -4 0 -16
9 -26 20 -10 11 -23 20 -30 20 -7 0 -25 11 -41 25 -16 14 -38 28 -49 31 -20 7
-68 38 -92 61 -7 6 -23 15 -36 19 -12 4 -33 15 -46 25 -13 11 -32 19 -41 19
-10 0 -23 7 -31 16 -16 20 -127 76 -137 70 -5 -3 -27 11 -51 29 -23 19 -58 39
-78 46 -19 6 -60 24 -90 40 -35 19 -70 29 -97 29 -30 0 -44 5 -54 20 -7 12
-28 22 -52 26 -22 4 -43 10 -45 15 -3 4 -27 11 -53 14 -26 4 -66 14 -89 22
-23 8 -53 13 -66 9 -22 -5 -28 1 -58 61 -27 53 -64 98 -194 229 -88 89 -182
185 -209 213 -27 28 -52 51 -57 51 -5 0 -9 4 -9 9 0 15 -324 335 -356 351 -31
15 -43 25 -84 62 -37 34 -99 64 -158 77 -73 15 -89 14 -112 -9z m141 -236 c6
-8 17 -14 25 -14 7 0 61 -47 121 -105 59 -57 114 -105 120 -105 7 0 20 -12 30
-27 9 -16 45 -57 79 -93 34 -36 93 -98 130 -137 37 -40 73 -73 81 -73 7 0 17
-8 20 -17 4 -10 38 -48 76 -85 76 -73 75 -87 -3 -69 -23 5 -49 7 -57 4 -8 -3
-24 -1 -36 5 -37 17 -69 22 -89 11 -13 -7 -27 -5 -50 8 -30 16 -64 17 -323 17
-309 -2 -436 -7 -457 -20 -7 -5 -40 -10 -72 -11 -33 -2 -64 -7 -70 -13 -13
-13 -96 -13 -96 -1 0 6 5 13 11 17 6 3 19 23 28 43 17 35 54 97 139 227 23 36
42 71 42 77 0 7 21 39 45 71 25 33 45 64 45 69 0 5 11 22 25 39 14 16 25 35
25 41 0 7 23 37 50 66 28 30 53 65 56 77 3 13 13 25 22 27 23 4 68 -11 83 -29z
m-1458 -301 c15 -3 27 -9 27 -13 0 -4 15 -13 33 -20 17 -7 41 -21 52 -30 11
-10 31 -21 45 -25 14 -4 45 -25 69 -47 25 -21 60 -46 78 -55 18 -8 43 -26 56
-40 12 -13 43 -35 70 -49 26 -13 47 -31 47 -39 0 -7 8 -20 19 -27 33 -24 111
-121 111 -140 0 -19 -5 -22 -52 -32 -15 -4 -36 -16 -47 -27 -13 -14 -29 -20
-53 -18 -47 3 -95 -10 -102 -28 -4 -8 -13 -13 -21 -10 -18 8 -100 -20 -116
-39 -6 -8 -26 -14 -43 -14 -17 0 -42 -7 -56 -15 -14 -8 -39 -21 -57 -30 -17
-8 -34 -19 -38 -25 -3 -5 -15 -10 -26 -10 -11 0 -42 -11 -69 -25 -27 -14 -52
-25 -56 -25 -4 0 -4 15 0 33 4 17 9 113 11 212 8 291 17 415 39 500 14 55 16
57 34 50 9 -3 29 -9 45 -12z m1852 -584 c17 1 59 -7 95 -16 36 -9 88 -17 115
-18 28 0 61 -6 75 -13 29 -13 212 -44 283 -47 26 -2 53 -8 60 -14 8 -6 43 -15
79 -20 36 -5 75 -14 86 -20 12 -6 34 -11 51 -11 16 0 42 -7 58 -15 30 -16 97
-44 153 -65 19 -7 75 -32 123 -56 49 -24 97 -44 108 -44 10 0 19 -4 19 -10 0
-13 90 -70 111 -70 9 0 22 -7 29 -15 7 -9 34 -25 59 -37 25 -11 59 -30 76 -42
38 -27 62 -41 105 -63 20 -10 46 -28 60 -40 13 -13 29 -23 36 -23 6 0 14 -7
18 -15 3 -8 10 -15 16 -15 12 0 82 -57 157 -127 25 -24 49 -43 53 -43 4 0 30
-22 56 -49 27 -26 59 -54 72 -60 12 -6 22 -17 22 -23 0 -6 17 -27 38 -47 20
-20 49 -52 64 -72 14 -19 44 -55 67 -80 22 -24 43 -52 47 -62 3 -10 16 -28 28
-42 12 -13 35 -50 51 -82 16 -32 38 -74 50 -93 12 -19 27 -55 35 -80 8 -25 27
-66 42 -91 15 -25 28 -51 28 -56 0 -5 9 -18 20 -28 11 -10 20 -27 20 -38 0
-10 7 -31 15 -45 19 -37 62 -132 69 -159 4 -11 13 -27 21 -33 8 -7 15 -27 15
-45 0 -18 6 -38 14 -44 8 -6 16 -26 19 -44 2 -18 9 -45 15 -62 6 -16 15 -48
20 -70 6 -22 22 -71 36 -110 14 -38 26 -84 26 -101 0 -16 5 -35 12 -42 12 -12
34 -143 43 -262 3 -36 10 -77 14 -92 6 -15 6 -43 1 -65 -5 -21 -5 -42 -1 -46
8 -8 3 -126 -5 -136 -2 -2 -19 10 -39 28 -20 17 -44 31 -55 31 -10 0 -21 4
-24 8 -5 9 -124 31 -166 30 -14 0 -47 5 -74 11 -28 6 -59 8 -69 5 -11 -3 -31
-7 -46 -9 -63 -7 -161 -52 -225 -105 -47 -39 -106 -111 -106 -129 0 -5 -4 -11
-8 -13 -25 -10 -81 -140 -98 -228 -20 -103 -23 -245 -5 -263 6 -6 11 -25 11
-42 1 -35 32 -131 49 -148 6 -6 11 -15 11 -21 0 -12 51 -120 60 -126 4 -3 15
-20 24 -37 9 -18 20 -33 25 -33 4 0 15 -18 23 -39 19 -47 91 -104 121 -95 10
3 30 7 44 9 24 2 42 19 43 40 8 113 9 108 -35 175 -64 99 -139 248 -160 318
-17 57 -17 71 -5 160 7 53 19 112 26 131 8 18 14 42 14 52 0 11 4 19 8 19 4 0
16 15 26 33 53 91 148 137 286 137 63 0 170 -33 170 -52 0 -4 8 -8 18 -8 21 0
128 -82 169 -130 35 -41 151 -270 176 -350 10 -30 22 -80 28 -110 5 -30 15
-80 20 -110 13 -67 6 -232 -16 -358 -9 -51 -13 -97 -10 -102 3 -6 0 -17 -9
-25 -8 -8 -18 -35 -22 -60 -3 -25 -10 -45 -15 -45 -5 0 -14 -12 -20 -27 -37
-94 -52 -130 -61 -147 -8 -15 -7 -22 5 -31 10 -7 15 -25 15 -46 -1 -19 7 -68
16 -109 29 -127 35 -194 38 -414 2 -205 -11 -326 -34 -326 -4 0 -25 9 -45 20
-21 11 -47 20 -59 20 -12 0 -24 7 -28 15 -4 12 -25 15 -98 15 -88 0 -157 -12
-238 -40 -100 -35 -197 -75 -211 -87 -8 -7 -21 -13 -28 -13 -7 0 -26 -10 -43
-21 -16 -12 -44 -29 -62 -38 -50 -25 -193 -143 -207 -171 -7 -14 -19 -32 -26
-41 -11 -13 -10 -23 5 -57 9 -23 22 -42 28 -42 6 0 19 -9 29 -20 35 -38 76
-26 165 49 67 57 135 101 154 101 8 0 17 4 21 9 3 5 19 12 36 16 17 4 33 13
36 21 3 8 18 14 33 14 15 0 33 7 40 15 7 8 22 15 34 15 12 0 60 10 107 21 169
43 336 7 402 -87 17 -24 34 -44 39 -44 4 0 8 -9 8 -20 0 -10 6 -23 13 -27 18
-10 44 -118 53 -213 5 -56 2 -92 -11 -142 -9 -37 -14 -71 -11 -76 3 -5 -3 -22
-13 -39 -19 -30 -37 -90 -32 -107 1 -5 -5 -16 -12 -25 -8 -9 -18 -27 -22 -41
-9 -34 -76 -170 -87 -176 -4 -3 -8 -12 -8 -20 0 -9 -6 -22 -12 -29 -7 -8 -29
-35 -48 -61 -19 -26 -47 -61 -62 -77 -16 -16 -28 -31 -28 -34 0 -3 -28 -30
-62 -61 -34 -32 -70 -65 -80 -75 -10 -9 -22 -17 -27 -17 -5 0 -25 -16 -44 -35
-19 -19 -42 -35 -51 -35 -8 0 -20 -9 -26 -20 -6 -11 -18 -20 -26 -20 -8 0 -30
-11 -47 -24 -64 -48 -136 -84 -191 -96 -39 -8 -62 -19 -76 -37 -13 -17 -35
-28 -62 -34 -62 -11 -343 14 -354 32 -3 5 -14 9 -26 9 -45 0 -173 83 -197 128
-24 44 -158 77 -192 46 -15 -13 -63 -29 -159 -51 -14 -3 -31 -11 -39 -17 -8
-6 -24 -9 -36 -8 -12 2 -48 -2 -81 -7 -32 -6 -111 -20 -174 -31 -63 -11 -149
-25 -190 -31 -41 -6 -91 -15 -110 -20 -34 -8 -282 -28 -426 -34 -39 -1 -80 -7
-90 -13 -14 -8 -25 -6 -45 5 -25 15 -30 15 -60 0 -22 -10 -38 -12 -45 -6 -6 5
-67 9 -135 8 -68 0 -166 4 -218 10 -51 6 -103 9 -113 5 -11 -3 -34 1 -52 9
-17 9 -43 19 -58 22 -16 3 -28 9 -28 14 0 9 64 100 148 211 48 63 92 148 92
177 0 7 6 24 14 36 19 30 35 148 37 284 3 114 -46 287 -106 376 -62 93 -68
102 -104 140 -87 94 -208 169 -292 181 -41 6 -50 4 -74 -18 -24 -22 -26 -30
-22 -83 4 -64 11 -83 31 -83 17 0 116 -50 136 -69 9 -9 26 -23 36 -32 46 -39
113 -129 134 -179 5 -14 14 -32 19 -41 18 -32 33 -136 33 -233 0 -140 -22
-233 -68 -288 -12 -16 -25 -37 -29 -48 -3 -11 -10 -20 -15 -20 -5 0 -24 -21
-41 -47 -40 -58 -134 -155 -174 -179 -16 -10 -46 -30 -65 -45 -19 -14 -78 -41
-130 -59 -52 -18 -101 -37 -107 -42 -7 -6 -23 -8 -35 -5 -12 4 -27 2 -33 -3
-10 -9 -136 -20 -260 -24 -39 -1 -75 -5 -80 -8 -9 -5 -380 15 -510 29 -27 2
-70 6 -95 8 -25 2 -63 11 -85 19 -22 8 -50 15 -61 16 -12 0 -35 7 -50 15 -16
8 -38 15 -50 15 -11 0 -29 6 -39 14 -11 8 -25 12 -32 9 -7 -3 -23 6 -34 21
-11 14 -27 26 -34 26 -8 0 -34 14 -58 30 -25 17 -48 30 -51 30 -7 0 -21 11
-54 40 -10 8 -35 29 -57 47 -66 52 -200 187 -224 226 -12 20 -26 37 -31 37 -4
0 -10 8 -14 17 -3 10 -24 41 -46 68 -22 28 -52 73 -66 100 -57 109 -83 157
-98 180 -9 14 -16 33 -16 43 0 10 -7 27 -15 38 -20 27 -19 47 6 67 14 13 18
24 13 35 -4 9 -7 38 -6 64 2 33 -3 57 -16 75 -62 95 -98 189 -109 287 -3 28
-12 64 -20 79 -8 15 -12 31 -9 35 5 8 -2 48 -39 232 -8 41 -19 118 -25 170 -6
52 -15 121 -21 153 -17 99 -6 497 16 563 2 7 -2 20 -9 30 -12 17 -25 98 -31
199 -1 22 2 96 6 165 5 69 13 190 18 270 18 278 22 325 31 355 4 17 13 77 20
135 15 138 16 146 29 210 6 30 13 75 16 100 2 25 11 88 19 140 8 52 22 149 31
215 22 156 23 161 34 220 6 28 15 74 20 104 6 30 20 83 31 119 12 36 24 88 27
116 4 28 12 56 18 61 7 6 15 21 18 35 3 14 12 50 21 80 9 30 18 64 20 75 3 11
10 36 16 55 6 19 13 44 15 55 1 11 14 45 28 75 31 70 54 128 63 160 3 14 19
53 35 86 16 34 29 69 29 77 0 8 7 20 15 27 8 7 15 20 15 29 0 10 7 26 15 37 8
10 15 27 15 37 0 9 4 17 10 17 5 0 21 21 34 48 13 26 36 58 50 71 18 17 26 35
26 58 0 20 8 43 21 56 11 12 33 42 50 67 16 25 40 57 54 73 14 15 25 33 25 40
0 6 12 23 25 36 14 13 25 28 25 33 0 5 28 37 63 71 34 34 85 88 113 119 28 31
64 63 80 71 16 9 58 43 93 76 35 34 68 61 72 61 4 0 21 13 38 29 17 16 38 31
46 35 8 3 20 17 27 31 6 14 20 25 30 25 11 0 40 16 65 35 25 19 52 35 59 35 7
0 18 9 24 20 6 11 14 19 18 16 4 -3 37 11 72 31 36 19 89 43 119 54 30 11 62
26 72 34 9 9 20 15 25 13 15 -4 84 23 84 33 0 5 11 9 24 9 14 0 27 4 30 9 3 5
14 7 24 4 10 -2 24 3 31 11 8 9 24 16 37 16 13 0 43 8 67 19 23 10 76 24 117
31 41 7 81 16 90 21 16 9 93 27 150 36 19 3 40 9 46 14 5 5 23 6 38 3 15 -2
34 0 42 6 7 7 17 9 22 6 5 -3 36 -1 68 5 111 21 209 25 449 22 132 -2 254 -4
270 -4z m-2745 -194 c182 -13 408 -53 462 -81 14 -8 33 -14 41 -14 8 0 25 -9
38 -19 22 -18 23 -20 8 -38 -9 -10 -19 -25 -22 -34 -3 -9 -18 -19 -34 -22 -15
-3 -44 -19 -63 -36 -155 -133 -380 -341 -380 -351 0 -5 -12 -23 -27 -40 -16
-16 -39 -44 -53 -60 -14 -16 -30 -30 -35 -30 -6 0 -27 55 -49 123 -21 67 -42
126 -47 131 -5 6 -9 19 -9 31 0 11 -9 38 -20 60 -11 22 -20 45 -20 52 0 7 -9
27 -20 45 -11 18 -20 43 -20 56 0 13 -7 37 -17 55 -9 18 -18 62 -20 99 l-4 67
33 5 c46 8 129 13 153 10 11 -2 58 -6 105 -9z m-292 -1073 c-4 -12 -79 -163
-89 -182 -34 -60 -79 -156 -79 -166 0 -14 -69 -195 -80 -209 -4 -5 -15 -37
-25 -70 -9 -33 -21 -69 -25 -80 -5 -11 -12 -30 -15 -42 -6 -22 -35 -33 -35
-14 0 4 -17 20 -37 34 -21 14 -82 68 -136 121 -55 53 -105 96 -113 96 -8 0
-14 7 -14 15 0 16 -85 105 -100 105 -5 0 -16 15 -25 34 -19 40 -7 76 25 76 11
0 35 9 53 19 50 28 64 35 152 76 44 20 92 43 107 51 14 8 32 14 39 14 7 0 31
8 53 18 23 11 67 27 98 36 32 9 60 21 63 26 4 6 17 10 30 10 13 0 27 5 30 10
3 6 18 10 33 10 15 0 34 5 42 10 18 12 53 13 48 2z m-464 -1280 c3 -5 -2 -27
-9 -50 -8 -23 -12 -48 -9 -56 3 -8 0 -24 -6 -36 -17 -31 -34 -143 -85 -560 -9
-74 -20 -143 -26 -152 -5 -10 -9 -39 -9 -65 0 -53 -29 -151 -30 -101 0 15 -4
30 -10 33 -5 3 -22 31 -36 61 -14 30 -29 54 -32 54 -4 0 -16 16 -26 35 -11 19
-25 35 -33 35 -8 0 -19 12 -26 28 -7 15 -23 38 -35 52 -36 38 -172 223 -172
234 0 5 -12 21 -28 35 -26 25 -56 120 -46 146 3 5 30 26 62 47 65 41 374 201
412 213 14 4 36 16 50 25 36 25 85 37 94 22z m-193 -1323 c-6 -41 -18 -173
-27 -295 -17 -228 -15 -381 7 -567 7 -53 9 -100 6 -104 -4 -3 -15 1 -25 10
-10 10 -22 17 -26 17 -4 0 -27 16 -50 35 -24 19 -53 35 -65 35 -13 0 -26 10
-33 25 -6 14 -32 37 -57 51 -46 27 -86 59 -204 165 -34 31 -70 59 -79 62 -10
4 -18 13 -18 21 0 8 -13 26 -30 39 -47 40 -40 67 35 142 35 36 69 65 74 65 9
0 35 20 132 103 14 12 36 29 49 37 70 46 140 103 140 116 0 7 11 16 24 20 13
3 33 17 45 30 11 13 27 24 33 24 7 1 26 12 43 25 16 13 31 23 32 21 2 -2 -1
-36 -6 -77z m-20 -1250 c-7 -23 -1 -194 9 -267 6 -37 12 -83 14 -102 9 -73 25
-150 35 -169 6 -11 8 -32 5 -48 -7 -37 31 -211 52 -234 13 -14 13 -21 3 -37
-11 -18 -10 -24 4 -40 31 -34 17 -111 -16 -84 -7 6 -55 22 -107 37 -52 14
-108 30 -125 34 -16 5 -61 23 -98 40 -38 17 -75 31 -82 31 -8 0 -17 9 -20 20
-3 11 -11 20 -16 20 -6 0 -36 20 -67 45 -127 101 -152 141 -132 217 7 24 15
45 19 48 5 4 48 58 91 115 16 21 209 215 279 279 111 103 164 136 152 95z"/>
<path d="M5272 6830 c-54 -33 -119 -106 -126 -142 -18 -89 -18 -99 -1 -118 10
-11 15 -26 12 -33 -3 -8 5 -35 18 -61 13 -25 25 -51 27 -57 5 -14 125 -22 133
-9 4 6 19 10 35 10 23 0 35 9 60 44 16 25 30 54 30 64 0 11 4 22 10 24 5 2 12
32 15 69 4 48 1 70 -10 85 -8 10 -15 27 -15 37 0 32 -42 77 -70 77 -14 0 -35
7 -46 15 -25 19 -33 19 -72 -5z"/>
<path d="M3577 6628 c-44 -41 -46 -47 -57 -120 -6 -43 -8 -88 -4 -100 3 -12 7
-39 8 -60 1 -21 11 -51 23 -66 26 -35 91 -68 106 -53 6 6 24 11 40 11 33 0 67
16 67 31 0 6 11 25 24 42 13 18 29 48 35 67 14 46 11 139 -6 165 -7 11 -13 27
-13 37 0 24 -47 69 -84 79 -63 18 -90 11 -139 -33z"/>
<path d="M5815 6128 c-53 -19 -74 -30 -111 -65 -20 -18 -60 -46 -89 -63 -29
-17 -58 -37 -65 -45 -7 -8 -20 -15 -30 -15 -10 0 -23 -7 -30 -15 -7 -8 -19
-15 -26 -15 -8 0 -22 -4 -32 -10 -30 -17 -160 -70 -170 -70 -6 0 -18 -8 -27
-17 -11 -10 -36 -18 -66 -19 -44 -2 -96 -14 -139 -32 -8 -3 -19 -6 -25 -7 -93
-11 -135 -18 -161 -26 -17 -5 -53 -11 -80 -13 -27 -3 -94 -10 -149 -17 -55 -7
-115 -12 -134 -11 -20 1 -42 -5 -52 -14 -17 -16 -19 -16 -25 0 -6 14 -26 16
-168 16 -189 -1 -264 5 -406 30 -192 34 -254 48 -335 73 -135 42 -189 41 -234
-7 -46 -49 3 -154 79 -171 l29 -6 -6 -62 c-13 -122 -8 -201 15 -248 31 -62 81
-112 143 -142 45 -23 66 -27 138 -27 113 0 206 21 272 61 62 37 119 87 119
105 0 6 7 17 15 24 8 7 18 30 21 52 4 21 11 41 15 44 5 3 9 16 9 30 0 23 2 24
80 24 l79 0 -6 -62 c-6 -71 7 -113 52 -166 43 -52 154 -94 240 -93 11 1 36 1
55 1 79 0 161 12 174 26 8 8 19 14 25 14 21 0 83 38 124 77 86 79 137 173 137
253 0 31 4 40 18 40 9 0 27 3 38 6 17 4 24 -1 33 -23 32 -81 68 -130 121 -165
30 -21 64 -38 76 -38 11 0 26 -6 32 -12 9 -9 49 -13 127 -13 78 0 118 4 127
13 6 6 20 12 31 12 42 0 114 45 174 108 56 59 63 73 79 138 22 95 15 188 -19
274 l-26 64 22 26 c48 53 61 123 28 152 -45 39 -65 43 -116 26z m-90 -354 c8
-20 15 -54 15 -76 0 -54 -30 -138 -50 -138 -8 0 -28 -8 -45 -18 -36 -22 -120
-34 -182 -25 -55 7 -113 57 -113 96 0 28 1 28 163 102 32 14 60 32 63 39 3 8
22 16 43 20 21 3 44 13 51 21 20 24 39 17 55 -21z m-1952 -249 c157 -18 161
-20 133 -80 -24 -49 -92 -101 -146 -110 -114 -19 -181 1 -200 61 -14 43 -8
105 14 138 15 23 16 24 81 10 36 -8 89 -16 118 -19z m1087 -14 c0 -45 -42 -94
-115 -133 -54 -30 -207 -38 -253 -14 -32 17 -48 57 -40 107 3 22 7 23 98 26
52 2 118 7 145 12 69 12 165 13 165 2z"/>
<path d="M2638 5295 c-2 -3 -33 -7 -69 -10 -91 -7 -158 -20 -171 -33 -7 -7
-20 -12 -30 -12 -30 0 -123 -75 -294 -236 -110 -105 -194 -228 -225 -329 -6
-22 -15 -44 -19 -50 -13 -18 -41 -126 -46 -180 -4 -38 -1 -57 10 -68 8 -8 13
-23 10 -34 -3 -11 3 -30 14 -43 29 -36 102 -32 143 9 16 16 29 39 29 51 0 12
7 48 15 80 8 32 16 70 18 86 2 16 16 55 31 88 14 32 26 67 26 76 0 10 4 20 8
22 12 5 72 95 72 108 0 6 11 16 25 22 14 6 25 14 25 18 0 4 13 20 30 36 16 16
30 35 30 41 0 13 18 24 145 87 96 47 155 56 287 42 35 -3 153 -80 180 -117 12
-16 28 -29 35 -29 8 0 13 -12 13 -28 0 -15 6 -36 13 -47 29 -43 46 -237 24
-272 -4 -6 -7 -22 -6 -34 0 -13 -8 -58 -19 -99 -11 -41 -26 -95 -32 -120 -15
-58 -19 -67 -71 -180 -24 -52 -52 -102 -61 -112 -10 -10 -18 -21 -18 -25 0 -5
-12 -21 -26 -38 -15 -16 -37 -47 -50 -67 -13 -21 -29 -38 -35 -38 -5 0 -26
-16 -46 -35 -20 -19 -42 -35 -49 -35 -18 0 -44 -64 -44 -109 0 -45 29 -65 108
-76 58 -8 45 -16 168 100 35 33 64 66 64 73 0 7 8 16 19 20 45 17 132 164 199
337 24 61 50 125 58 143 8 18 14 51 14 74 0 23 6 49 14 57 15 16 24 86 33 251
5 94 -17 232 -38 246 -5 3 -9 16 -9 29 0 13 -7 30 -15 39 -8 8 -15 19 -15 24
0 6 -13 24 -29 41 -16 17 -32 38 -35 47 -3 9 -15 18 -25 21 -11 3 -21 13 -24
23 -13 48 -196 147 -264 142 -12 -1 -34 5 -50 13 -30 16 -37 18 -45 10z"/>
<path d="M5435 900 c-3 -5 1 -10 9 -10 10 0 16 -9 16 -25 0 -18 -7 -26 -25
-31 -32 -8 -33 -23 -1 -17 30 6 41 -11 20 -32 -19 -19 -14 -28 10 -19 9 3 16
16 16 29 0 12 10 30 23 38 l22 16 -22 0 c-15 1 -23 7 -23 19 0 31 -32 53 -45
32z"/>
<path d="M4397 870 c-26 -21 -43 -77 -32 -111 13 -41 99 -61 93 -21 -2 9 8 22
22 28 29 15 42 46 34 80 -12 46 -73 59 -117 24z m87 -6 c11 -4 16 -19 16 -42
0 -28 -3 -33 -12 -24 -16 16 -28 15 -28 -2 0 -22 -29 -41 -42 -28 -9 9 -8 18
0 37 14 31 41 43 53 24 7 -11 9 -11 9 4 0 24 -42 22 -65 -3 -12 -13 -16 -30
-13 -54 3 -28 1 -33 -9 -24 -18 15 -16 64 3 93 16 25 53 33 88 19z"/>
<path d="M5210 856 c-5 -15 -10 -33 -10 -40 0 -8 -7 -19 -15 -26 -21 -18 -19
-32 5 -25 15 5 20 2 20 -12 0 -15 4 -14 20 7 19 23 21 24 31 8 11 -20 41 -23
70 -8 26 15 26 80 -1 105 -18 16 -20 16 -35 1 -9 -9 -21 -16 -26 -16 -5 0 -9
-14 -9 -31 0 -45 -24 -31 -26 14 -1 48 -11 57 -24 23z m90 -30 c0 -3 -4 -8
-10 -11 -5 -3 -10 -1 -10 4 0 6 5 11 10 11 6 0 10 -2 10 -4z m30 -36 c0 -5 -4
-10 -10 -10 -5 0 -10 5 -10 10 0 6 5 10 10 10 6 0 10 -4 10 -10z"/>
<path d="M4720 860 c-21 -5 -24 -11 -21 -35 4 -40 7 -43 35 -38 33 7 49 27 41
52 -7 24 -22 30 -55 21z m37 -26 c6 -16 -15 -37 -29 -28 -4 3 -8 14 -8 25 0
23 28 26 37 3z"/>
<path d="M4869 847 c-35 -23 -45 -51 -35 -93 5 -18 13 -24 34 -24 32 0 46 9
55 34 11 28 -2 56 -25 56 -20 0 -21 1 -3 20 27 30 13 33 -26 7z m36 -47 c3 -5
-3 -10 -14 -10 -12 0 -21 5 -21 10 0 6 6 10 14 10 8 0 18 -4 21 -10z m-7 -41
c-2 -6 -7 -10 -11 -10 -4 1 -14 1 -22 1 -8 0 -15 5 -15 10 0 6 12 10 26 10 14
0 24 -5 22 -11z"/>
<path d="M5089 843 c-1 -5 -2 -14 -3 -22 -2 -23 -24 -24 -36 -2 -14 26 -46 27
-60 2 -5 -11 -10 -36 -10 -57 0 -31 2 -35 15 -24 8 7 15 21 15 31 0 11 5 19
11 19 6 0 9 -7 5 -15 -3 -8 -3 -22 0 -30 9 -23 36 3 29 26 -5 14 -1 19 14 19
23 0 29 -16 9 -22 -9 -3 -8 -10 5 -23 16 -15 20 -16 28 -4 5 8 7 22 5 32 -2
10 1 20 8 23 20 8 7 54 -15 54 -11 0 -20 -3 -20 -7z m-59 -28 c0 -8 -4 -15 -9
-15 -13 0 -22 16 -14 24 11 11 23 6 23 -9z"/>
<path d="M4560 780 c0 -5 13 -10 29 -10 17 0 33 5 36 10 4 6 -8 10 -29 10 -20
0 -36 -4 -36 -10z"/>
</g>
</svg>
